<svg width="129" height="47" viewBox="0 0 129 47" fill="none" xmlns="http://www.w3.org/2000/svg">
<g clip-path="url(#clip0)">
<path d="M11.7158 23.2559C11.7309 24.814 11.1464 26.2336 9.96226 27.5147C8.77812 28.7957 7.34595 29.5565 5.66575 29.797L2.89521 30.1955L2.78662 18.864L5.55716 18.4665C7.24303 18.2241 8.68495 18.5719 9.88294 19.5099C11.0809 20.4479 11.6919 21.6966 11.7158 23.2559Z" fill="#531DA7"/>
<path d="M97.2932 10.9529C97.3083 12.511 96.7238 13.9302 95.5397 15.2107C94.3555 16.4911 92.9243 17.2522 91.246 17.494C89.567 17.7357 88.1251 17.3879 86.9202 16.4505C85.7153 15.5132 85.1052 14.2655 85.0901 12.7074C85.075 11.143 85.6592 9.72344 86.8427 8.44865C88.0262 7.17387 89.4575 6.41277 91.1364 6.16537C92.8229 5.92363 94.2649 6.27176 95.4622 7.20975C96.6596 8.14774 97.2699 9.39546 97.2932 10.9529Z" fill="#531DA7"/>
<path d="M55.954 35.8149C54.7503 36.7812 52.8571 37.4514 50.2741 37.8253C47.7755 38.1994 45.2328 38.1675 42.7444 37.7309C40.3024 37.2858 38.6468 36.5675 37.7774 35.576C36.908 34.5845 37.0723 33.6028 38.2703 32.6308C39.4828 31.6569 41.3736 30.9839 43.9427 30.6119C46.4438 30.237 48.9895 30.273 51.479 30.7186C53.9304 31.1555 55.5936 31.8725 56.4686 32.8697C57.3437 33.8669 57.1721 34.8486 55.954 35.8149Z" fill="#531DA7"/>
<path d="M114.933 0L110.999 0.566572L111.093 9.85175L101.001 2.00472L99.6789 2.19358L99.7299 7.45137L98.3239 5.8678C98.0333 5.55418 97.7175 5.26489 97.3796 5.00283C95.594 3.61568 93.4391 3.09065 90.9717 3.4457C88.5543 3.7932 86.4721 4.89707 84.7828 6.72521C84.712 6.80076 84.6459 6.87819 84.5788 6.95467V6.94145H84.5628L82.5515 4.65345L78.6176 5.22002L78.6232 5.79698H78.6138V5.7762L78.1756 5.28234L70.2436 6.42399C68.8077 6.62262 67.4881 7.32189 66.5175 8.39849C66.5014 8.41549 66.4863 8.43343 66.4712 8.45043V8.42965H66.4551L65.322 7.12937L61.3881 7.69594L61.4825 16.9811L51.3692 9.13881L35.7073 11.39L27.2502 20.5382L18.6402 13.8442L14.1076 14.4957L14.1586 19.762L14.1426 19.7441L12.7479 18.1681C12.4578 17.8542 12.1419 17.5652 11.8036 17.3041C10.0179 15.915 7.86213 15.3909 5.39471 15.746L0 16.5373V33.6846L12.0397 46.9991L20.4268 45.7856V40.458L28.5354 39.2842L28.5175 33.9377L29.6402 33.7753L29.9613 33.728V34.4693C29.9821 35.3815 30.3721 36.2776 31.1265 37.1379C32.7271 38.9622 35.5732 40.221 39.8272 40.9877C42.0504 41.3874 44.3049 41.5877 46.5637 41.5864C48.5214 41.5845 50.4764 41.4418 52.4136 41.1596C56.8517 40.5165 60.0491 39.372 62.1823 37.6601C63.4703 36.6261 64.1756 35.5127 64.2767 34.3551C64.288 34.2238 64.2918 34.092 64.288 33.9603V30.5005L66.406 32.915C67.813 34.5203 70.306 35.6242 74.0255 36.2946C75.9599 36.6419 77.9214 36.8154 79.8867 36.813C81.5871 36.8118 83.2852 36.6881 84.9679 36.4429C88.8244 35.8848 91.6072 34.8848 93.4759 33.3843C94.6251 32.4618 95.254 31.4636 95.3456 30.4164C95.3557 30.2977 95.3591 30.1786 95.356 30.0595V26.8348H95.4504L101.749 34.0113L110.134 32.8045V29.0123L119.62 31.4278L128.895 30.0661V15.7026L114.933 0ZM112.188 12.0708L112.086 1.49481L113.867 1.23796L114.008 15.8121L102.582 6.92823L102.684 17.5042L100.902 17.7602L100.762 3.18602L112.188 12.0708ZM85.5675 7.45704C87.0929 5.80642 88.9437 4.82499 91.1199 4.51275C93.2962 4.2005 95.1612 4.64778 96.7148 5.85458C98.2685 7.06138 99.0554 8.67548 99.0755 10.6969C99.0957 12.7183 98.3428 14.5537 96.8168 16.203C95.2877 17.853 93.436 18.8344 91.2616 19.1473C89.0872 19.4602 87.2222 19.0129 85.6667 17.8055C84.1143 16.5974 83.3274 14.9833 83.306 12.9632C83.2846 10.943 84.0384 9.10765 85.5675 7.45704ZM81.4788 5.89896L81.6195 20.5354L79.8385 20.7913L79.6978 6.15486L81.4788 5.89896ZM67.2975 9.13315C68.1015 8.24022 69.1958 7.66082 70.3862 7.49764L77.1029 6.53258L77.119 8.18602L70.4023 9.15109C69.6969 9.24748 69.0485 9.59074 68.5722 10.1199C68.0642 10.6695 67.8124 11.2776 67.8168 11.9443C67.8103 12.2535 67.8783 12.5597 68.0151 12.8372C68.1518 13.1146 68.3533 13.355 68.6025 13.5382C69.1136 13.9424 69.7281 14.0925 70.4457 13.9887L73.6119 13.5335C74.8212 13.3598 75.8584 13.6094 76.7233 14.2823C77.5883 14.9553 78.0264 15.853 78.0378 16.9754C78.0478 18.0979 77.6283 19.1187 76.779 20.0378C75.976 20.9328 74.8815 21.514 73.6903 21.678L67.1379 22.6223L67.1218 20.9698L73.6742 20.0255C74.3812 19.9283 75.03 19.5813 75.5033 19.0472C76.0113 18.5046 76.2631 17.8996 76.2587 17.2323C76.2644 16.9215 76.1961 16.6138 76.0593 16.3347C75.9225 16.0555 75.7212 15.813 75.4721 15.627C74.9622 15.2304 74.3481 15.0837 73.6298 15.187L70.4637 15.6421C69.2537 15.8159 68.215 15.5666 67.3475 14.8942C66.48 14.2219 66.0422 13.3242 66.034 12.2011C66.0258 11.0755 66.447 10.0529 67.2975 9.13315ZM62.5609 19.2068L62.4589 8.63078L64.2399 8.37488L64.3805 22.949L52.9547 14.0652L53.0567 24.6412L51.2748 24.8961L51.1341 10.322L62.5609 19.2068ZM49.3768 10.5137L49.3928 12.1671L39.3994 13.6043L39.4457 18.4419L46.4334 17.4363L46.4485 19.0897L39.4608 20.0944L39.5071 24.932L49.5005 23.4958L49.5165 25.1492L37.7432 26.8414L37.6025 12.2049L49.3768 10.5137ZM16.9773 15.1719L17.118 29.8083L15.3371 30.0661L15.1964 15.4297L16.9773 15.1719ZM0.992446 17.4703L5.54391 16.8159C7.72018 16.5011 9.58514 16.9484 11.1388 18.1577C12.6925 19.367 13.4822 20.9805 13.508 22.9981C13.5269 25.0189 12.7715 26.8549 11.2417 28.5061C9.71199 30.1574 7.85962 31.1388 5.68461 31.4504L1.13314 32.1048L0.992446 17.4703ZM12.17 38.0076L24.4268 36.2332L26.4098 38.4891L14.1492 40.2644L18.3041 44.9962L12.4608 45.8461L2.17186 34.1133L25.5382 30.7271L27.5212 32.983L9.98961 35.5231L12.17 38.0076ZM27.3928 24.3437L20.56 19.0312L20.6544 29.2984L18.8735 29.5543L18.7365 15.2861L27.3664 21.9962L35.8433 12.8272L35.9802 27.0944L34.186 27.3522L34.0916 17.085L27.3928 24.3437ZM61.5014 36.8083C59.5411 38.3821 56.4583 39.4731 52.2531 40.0812C48.0623 40.6874 43.983 40.633 40.0151 39.9179C36.0472 39.2027 33.3535 38.0359 31.9339 36.4174C30.5099 34.7945 30.7775 33.1961 32.7365 31.6223C34.6956 30.0485 37.7712 28.9585 41.9632 28.3522C46.1684 27.7441 50.255 27.7973 54.2229 28.5118C58.1907 29.2263 60.8867 30.396 62.3107 32.0208C63.7309 33.6393 63.4611 35.2351 61.5014 36.8083ZM92.797 32.5354C91.0973 33.899 88.4344 34.8433 84.8083 35.3683C81.2913 35.8948 77.7122 35.847 74.2106 35.2266C70.7715 34.6059 68.4378 33.5955 67.2096 32.1955L61.373 25.543L67.2153 24.6931L73.0529 31.3466C73.7365 32.1297 75.0324 32.6925 76.9405 33.0349C78.8865 33.3795 80.8756 33.4057 82.83 33.1124C84.8477 32.8209 86.327 32.2965 87.2682 31.5392C88.2093 30.7819 88.339 30.0142 87.6572 29.2361L81.8196 22.5826L87.6619 21.7375L93.4995 28.39C94.7296 29.7907 94.4954 31.1725 92.797 32.5354ZM119.671 30.322L107.595 27.2436L104.249 27.728L108.007 32.0104L102.164 32.8602L91.8791 21.1275L106.189 19.0567C108.77 18.6713 111.397 18.7076 113.966 19.1643C116.479 19.6176 118.185 20.3563 119.083 21.3805C119.862 22.2694 119.827 23.1621 118.975 24.0585C118.143 24.9399 116.704 25.6302 114.661 26.1294L126.978 29.2644L119.671 30.322Z" fill="#531DA7"/>
<path d="M102.582 6.93173L102.684 17.5049L100.902 17.7608L100.763 3.18669L112.188 12.0705L112.086 1.4983L113.867 1.24146L114.007 15.8156L102.582 6.93173Z" fill="white"/>
<path d="M81.6194 20.5337L79.8385 20.7896L79.6978 6.15507L81.4787 5.89917L81.6194 20.5337Z" fill="white"/>
<path d="M96.715 5.85419C95.1626 4.64676 93.2976 4.19948 91.1201 4.51235C88.9426 4.82523 87.0917 5.80666 85.5677 7.45664C84.0417 9.106 83.2885 10.9414 83.308 12.9628C83.3275 14.9842 84.1144 16.5983 85.6687 17.8051C87.2217 19.0125 89.0867 19.4598 91.2636 19.1469C93.4405 18.834 95.2916 17.8526 96.817 16.2026C98.3423 14.552 99.0952 12.7166 99.0757 10.6965C99.0562 8.67635 98.2693 7.06224 96.715 5.85419ZM95.5394 15.2102C94.3628 16.4894 92.9315 17.2505 91.2457 17.4935C89.5598 17.7365 88.1179 17.3887 86.9199 16.45C85.7143 15.512 85.1043 14.2643 85.0899 12.7069C85.0754 11.1494 85.6596 9.72986 86.8425 8.44814C88.0266 7.16769 89.4578 6.40659 91.1361 6.16486C92.8145 5.92312 94.2564 6.27282 95.4619 7.21396C96.6675 8.1444 97.2778 9.39211 97.2929 10.9571C97.308 12.5221 96.7235 13.9398 95.5394 15.2102Z" fill="white"/>
<path d="M119.671 30.3218L126.974 29.2642L114.657 26.1292C116.7 25.6306 118.139 24.9403 118.971 24.0584C119.823 23.1613 119.858 22.2686 119.079 21.3804C118.18 20.3561 116.474 19.6174 113.962 19.1641C111.393 18.7075 108.766 18.6711 106.185 19.0565L91.8789 21.1273L102.172 32.8554L108.014 32.0055L104.249 27.7279L107.594 27.2435L119.671 30.3218ZM102.271 25.471L99.6967 22.5371L108.164 21.3096C109.182 21.1582 110.219 21.1732 111.232 21.3539C112.215 21.5315 112.883 21.8217 113.237 22.2246C113.591 22.6275 113.528 23.0266 113.048 23.4219C112.553 23.8185 111.784 24.0924 110.739 24.2435L102.271 25.471Z" fill="white"/>
<path d="M92.797 32.5352C91.0973 33.8988 88.4344 34.8431 84.8084 35.3681C81.2914 35.8946 77.7123 35.8468 74.2106 35.2264C70.7715 34.6057 68.4379 33.5953 67.2097 32.1953L61.373 25.5428L67.2154 24.6929L73.0529 31.3464C73.7366 32.1295 75.0325 32.6923 76.9406 33.0347C78.8866 33.3793 80.8757 33.4055 82.8301 33.1122C84.8477 32.8207 86.3271 32.2963 87.2682 31.539C88.2094 30.7817 88.3391 30.014 87.6573 29.2359L81.8197 22.5824L87.662 21.7373L93.4996 28.3898C94.7297 29.7905 94.4955 31.1723 92.797 32.5352Z" fill="white"/>
<path d="M78.0405 16.9711C78.0506 18.0936 77.631 19.1143 76.7818 20.0334C75.9787 20.9284 74.8843 21.5096 73.6931 21.6737L67.1407 22.6179L67.1247 20.9654L73.677 20.0212C74.384 19.924 75.0328 19.5769 75.5061 19.0429C76.0141 18.5002 76.2659 17.8953 76.2615 17.228C76.2672 16.9172 76.1988 16.6095 76.0621 16.3303C75.9253 16.0512 75.724 15.8086 75.4749 15.6227C74.965 15.2261 74.3509 15.0794 73.6326 15.1826L70.4665 15.6378C69.2565 15.8115 68.2178 15.5622 67.3503 14.8899C66.4829 14.2176 66.045 13.3199 66.0368 12.1968C66.0255 11.0743 66.4451 10.0533 67.2956 9.13353C68.1001 8.24021 69.1951 7.66077 70.3862 7.49802L77.1029 6.53296L77.1189 8.1864L70.4023 9.15147C69.6969 9.24786 69.0485 9.59112 68.5722 10.1203C68.0642 10.6699 67.8124 11.278 67.8168 11.9447C67.8103 12.2539 67.8783 12.5601 68.0151 12.8375C68.1518 13.115 68.3533 13.3554 68.6025 13.5386C69.1136 13.9428 69.728 14.0929 70.4457 13.989L73.6119 13.5339C74.8212 13.3602 75.8583 13.6098 76.7233 14.2827C77.5882 14.9557 78.0273 15.8518 78.0405 16.9711Z" fill="white"/>
<path d="M52.9554 14.067L53.0574 24.6402L51.2764 24.8961L51.1357 10.3219L62.5607 19.2058L62.4587 8.63261L64.2396 8.37671L64.3803 22.9508L52.9554 14.067Z" fill="white"/>
<path d="M49.5176 25.1494L37.7432 26.8416L37.6025 12.207L49.3769 10.5139L49.3929 12.1674L39.3995 13.6046L39.4458 18.4422L46.4383 17.4365L46.4534 19.0899L39.4618 20.0947L39.5081 24.9322L49.5015 23.496L49.5176 25.1494Z" fill="white"/>
<path d="M35.9841 27.0946L34.1919 27.3524L34.0937 17.0852L27.393 24.3439L20.5601 19.0314L20.6583 29.2986L18.8774 29.5545L18.7405 15.2863L27.3703 21.9964L35.8472 12.8274L35.9841 27.0946Z" fill="white"/>
<path d="M17.1182 29.8064L15.3372 30.0633L15.1965 15.4278L16.9775 15.1719L17.1182 29.8064Z" fill="white"/>
<path d="M11.1425 18.1574C9.58942 16.95 7.72445 16.5027 5.54756 16.8156L0.996094 17.47L1.13679 32.1064L5.68826 31.452C7.86515 31.1372 9.71627 30.1558 11.2416 28.5077C12.7669 26.8596 13.5224 25.0236 13.5079 22.9997C13.4884 20.9777 12.6999 19.3636 11.1425 18.1574ZM9.9621 27.5162C8.78552 28.7942 7.35335 29.5543 5.66559 29.7967L2.89506 30.1952L2.78646 18.8637L5.557 18.4662C7.24287 18.2238 8.68479 18.5716 9.88278 19.5096C11.0808 20.4476 11.6908 21.6953 11.7128 23.2528C11.7298 24.8127 11.1462 26.2339 9.9621 27.5162Z" fill="white"/>
<path d="M26.4062 38.4894L14.1493 40.2637L18.3014 44.9956L12.4581 45.8417L2.16821 34.1136L25.5384 30.7302L27.5176 32.9861L9.98974 35.5234L12.1701 38.0078L24.4269 36.2335L26.4062 38.4894Z" fill="white"/>
<path d="M62.3107 32.0206C60.8867 30.3964 58.1908 29.2267 54.2229 28.5116C50.255 27.7964 46.1684 27.7433 41.9632 28.352C37.7718 28.9589 34.6963 30.0489 32.7366 31.6221C30.7769 33.1952 30.5093 34.7936 31.9339 36.4171C33.3542 38.0357 36.0479 39.2025 40.0152 39.9176C43.9824 40.6328 48.0617 40.6872 52.2531 40.081C56.459 39.4722 59.5417 38.3813 61.5014 36.8081C63.4611 35.2349 63.7309 33.6391 62.3107 32.0206ZM55.9538 35.8147C54.7501 36.781 52.8568 37.4511 50.2739 37.8251C47.7753 38.1992 45.2326 38.1673 42.7441 37.7306C40.3022 37.2856 38.6466 36.5673 37.7772 35.5758C36.9078 34.5843 37.0721 33.6025 38.2701 32.6306C39.4826 31.6567 41.3734 30.9837 43.9424 30.6117C46.4436 30.2367 48.9892 30.2728 51.4788 30.7184C53.9302 31.1553 55.5934 31.8723 56.4684 32.8695C57.3434 33.8666 57.1719 34.8484 55.9538 35.8147Z" fill="white"/>
<path d="M113.047 23.4242C112.552 23.8208 111.783 24.0946 110.738 24.2457L102.271 25.4733L99.6968 22.5394L108.164 21.3118C109.183 21.1605 110.219 21.1755 111.232 21.3562C112.215 21.5337 112.883 21.8239 113.237 22.2268C113.591 22.6297 113.527 23.0288 113.047 23.4242Z" fill="#531DA7"/>
</g>
<defs>
<clipPath id="clip0">
<rect width="128.895" height="47" fill="white"/>
</clipPath>
</defs>
</svg>
